<svg xmlns="http://www.w3.org/2000/svg" xmlns:svg="http://www.w3.org/2000/svg" xmlns:xlink="http://www.w3.org/1999/xlink" id="svg3969" width="64" height="64" version="1.1"><defs id="defs3971"><linearGradient id="linearGradient3759-7"><stop id="stop3761-4" offset="0" stop-color="#454545" stop-opacity="1"/><stop id="stop3850" offset=".384" stop-color="#1c1c1c" stop-opacity="1"/><stop id="stop3767-0" offset=".769" stop-color="#383838" stop-opacity="1"/><stop id="stop3769-9" offset=".914" stop-color="#262626" stop-opacity="1"/><stop id="stop3763-4" offset="1" stop-color="#000" stop-opacity="1"/></linearGradient><linearGradient id="linearGradient3800"><stop id="stop3802" offset="0" stop-color="#28292b" stop-opacity="1"/><stop id="stop3804" offset="1" stop-color="#1a2334" stop-opacity="1"/></linearGradient><linearGradient id="linearGradient3681"><stop id="stop3683" offset="0" stop-color="#6cbb73" stop-opacity="1"/><stop id="stop3685" offset="1" stop-color="#7ccf83" stop-opacity="1"/></linearGradient><linearGradient id="linearGradient3691"><stop id="stop3693" offset="0" stop-color="#fff" stop-opacity="1"/><stop id="stop3695" offset="1" stop-color="#919191" stop-opacity="1"/></linearGradient><linearGradient id="linearGradient4011"><stop id="stop4013" offset="0" stop-color="#6cbb73" stop-opacity="1"/><stop id="stop4015" offset="1" stop-color="#7ccf83" stop-opacity="1"/></linearGradient><linearGradient id="linearGradient3673"><stop id="stop3675" offset="0" stop-color="#000" stop-opacity="1"/><stop id="stop3677" offset="1" stop-color="#797979" stop-opacity="1"/></linearGradient><linearGradient id="linearGradient3649"><stop id="stop3651" offset="0" stop-color="#71c97c" stop-opacity="1"/><stop id="stop3653" offset="1" stop-color="#00b418" stop-opacity="1"/></linearGradient><linearGradient id="linearGradient4026"><stop id="stop4028" offset="0" stop-color="#71c97c" stop-opacity="1"/><stop id="stop4030" offset="1" stop-color="#00b418" stop-opacity="1"/></linearGradient><linearGradient id="linearGradient3691-2"><stop id="stop3693-7" offset="0" stop-color="#fff" stop-opacity="1"/><stop id="stop3695-6" offset="1" stop-color="#919191" stop-opacity=".101"/></linearGradient><linearGradient id="linearGradient3759"><stop id="stop3761" offset="0" stop-color="#000" stop-opacity="1"/><stop id="stop3767" offset=".769" stop-color="#383838" stop-opacity="1"/><stop id="stop3769" offset=".914" stop-color="#262626" stop-opacity="1"/><stop id="stop3763" offset="1" stop-color="#000" stop-opacity="1"/></linearGradient><linearGradient id="linearGradient3800-5"><stop id="stop3802-1" offset="0" stop-color="#28292b" stop-opacity="1"/><stop id="stop3804-7" offset="1" stop-color="#1a2334" stop-opacity="1"/></linearGradient><linearGradient id="linearGradient3681-4"><stop id="stop3683-9" offset="0" stop-color="#6cbb73" stop-opacity="1"/><stop id="stop3685-4" offset="1" stop-color="#7ccf83" stop-opacity="1"/></linearGradient><linearGradient id="linearGradient3691-2-2"><stop id="stop3693-7-4" offset="0" stop-color="#fff" stop-opacity="1"/><stop id="stop3695-6-5" offset="1" stop-color="#919191" stop-opacity=".101"/></linearGradient><radialGradient id="radialGradient3811-6" cx="242.942" cy="408.895" r="11.617" fx="242.942" fy="408.895" gradientUnits="userSpaceOnUse" xlink:href="#linearGradient3681-1"/><linearGradient id="linearGradient3681-1"><stop id="stop3683-4" offset="0" stop-color="#6cbb73" stop-opacity="1"/><stop id="stop3685-2" offset="1" stop-color="#7ccf83" stop-opacity="1"/></linearGradient><linearGradient id="linearGradient3673-3"><stop id="stop3675-2" offset="0" stop-color="#000" stop-opacity="1"/><stop id="stop3677-2" offset="1" stop-color="#797979" stop-opacity="1"/></linearGradient><linearGradient id="linearGradient4324" x1="44.286" x2="80.714" y1="451.684" y2="451.684" gradientTransform="matrix(0.10149539,0,0,0.11458095,26.12548,-30.841788)" gradientUnits="userSpaceOnUse" xlink:href="#linearGradient3673-3"/><linearGradient id="linearGradient4331" x1="172.825" x2="187.462" y1="459.146" y2="459.146" gradientTransform="matrix(0.13859131,0,0,0.12739881,-17.85691,-21.259493)" gradientUnits="userSpaceOnUse" xlink:href="#linearGradient3691"/><linearGradient id="linearGradient4336" x1="237.015" x2="255.057" y1="467.182" y2="467.182" gradientTransform="matrix(0.12711252,0,0,0.17483038,-18.208089,-39.22254)" gradientUnits="userSpaceOnUse" xlink:href="#linearGradient3681-4"/><linearGradient id="linearGradient4339" x1="153.786" x2="633.357" y1="344.505" y2="344.505" gradientTransform="matrix(0.12670543,0,0,0.16404767,-18.145281,-31.376313)" gradientUnits="userSpaceOnUse" xlink:href="#linearGradient3800-5"/><linearGradient id="linearGradient4342" x1="282.822" x2="513.764" y1="567.188" y2="567.188" gradientTransform="matrix(0.12711252,0,0,0.12711252,-17.918526,-40.105876)" gradientUnits="userSpaceOnUse" xlink:href="#linearGradient3759"/><linearGradient id="linearGradient4342-5" x1="282.822" x2="513.764" y1="567.188" y2="567.188" gradientTransform="matrix(0.12711252,0,0,0.12711252,-17.918526,-40.105876)" gradientUnits="userSpaceOnUse" xlink:href="#linearGradient3759-0"/><linearGradient id="linearGradient3759-0"><stop id="stop3761-1" offset="0" stop-color="#000" stop-opacity="1"/><stop id="stop3767-6" offset=".769" stop-color="#383838" stop-opacity="1"/><stop id="stop3769-0" offset=".914" stop-color="#262626" stop-opacity="1"/><stop id="stop3763-2" offset="1" stop-color="#000" stop-opacity="1"/></linearGradient><linearGradient id="linearGradient3800-5-8"><stop id="stop3802-1-4" offset="0" stop-color="#28292b" stop-opacity="1"/><stop id="stop3804-7-9" offset="1" stop-color="#1a2334" stop-opacity="1"/></linearGradient><filter id="filter3785" width="1.282" height="1.396" x="-.141" y="-.198"><feGaussianBlur id="feGaussianBlur3787" stdDeviation="1.709"/></filter><filter id="filter3789" width="1.135" height="1.47" x="-.067" y="-.235"><feGaussianBlur id="feGaussianBlur3791" stdDeviation="1.709"/></filter><filter id="filter3954" width="1.087" height="1.303" x="-.043" y="-.152"><feGaussianBlur id="feGaussianBlur3956" stdDeviation="1.101"/></filter></defs><metadata id="metadata3974"/><g id="layer1"><path id="rect3761-0-8" fill="#fff" fill-opacity="1" fill-rule="nonzero" stroke="#d3d3d3" stroke-dasharray="none" stroke-miterlimit="4" stroke-opacity="1" stroke-width=".229" d="m 17.497908,21.993319 27.583344,0 1.543413,14.425244 c -0.196487,2.461382 -0.290875,2.541217 -1.741787,3.635796 -1.784259,1.05976 -3.946009,1.619884 -5.91388,2.019601 -4.936745,1.002758 -10.390335,0.996011 -16.971517,-1.213154 -2.144907,-0.67424 -3.101092,-3.631788 -2.956159,-4.846711 L 17.497908,21.993319 z" filter="url(#filter3785)"/><path id="rect2830-2-3" fill="#fff" fill-opacity="1" stroke="none" d="M 0.13146451,21.037754 29.912032,14.500557 60.963724,20.492989 31.001566,31.933085 0.13146451,21.037754 z" filter="url(#filter3954)" transform="matrix(1.0295864,0,0,1.3826526,0.07031688,-6.8865311)"/><path id="rect3761-0" fill="url(#linearGradient4342)" fill-opacity="1" fill-rule="nonzero" stroke="#d3d3d3" stroke-dasharray="none" stroke-miterlimit="4" stroke-opacity="1" stroke-width=".229" d="m 18.146003,21.629146 27.583344,0 1.543413,14.425244 c -0.196487,2.461382 -0.290875,2.541217 -1.741787,3.635796 -1.784259,1.05976 -3.946009,1.619884 -5.91388,2.019601 -4.936745,1.002758 -10.390335,0.996011 -16.971517,-1.213154 -2.144907,-0.67424 -3.101092,-3.631788 -2.956159,-4.846711 L 18.146003,21.629146 z"/><path id="rect2830-2" fill="url(#linearGradient4339)" fill-opacity="1" stroke="none" d="M 1.4035133,22.326497 31.088705,13.889784 62.040951,21.62344 32.17475,36.387688 1.4035133,22.326497 z"/><path id="rect3614-4" fill="url(#linearGradient4336)" fill-opacity="1" fill-rule="nonzero" stroke="none" d="m 12.672767,36.90081 1.636812,-0.04371 c 0.92562,3.762188 2.615887,8.991117 2.100927,9.842822 -0.657334,1.403258 -3.759663,1.995627 -4.491108,0.395035 0.04222,-3.026517 0.876859,-6.164925 0.753369,-10.194149 z"/><path id="path3605-7-8" fill="#373737" fill-opacity="1" stroke="none" d="m 34.317549,21.072146 c -1.074265,0.760476 -3.324282,-0.680802 -3.687075,-0.07401 -0.038,0.06355 -5.07e-4,0.423371 0.0051,0.530035 0.885927,0.838235 2.595664,0.8536 3.637078,0.01043 l 0.04488,-0.466425 3e-6,0 10e-7,0 2e-6,0 -4e-6,0 z"/><path id="rect3617-6" fill="#72c482" fill-opacity="1" stroke="none" d="m 31.767483,21.037556 0.916682,0.35153 c -4.622944,1.535155 -16.848647,3.073824 -19.109611,5.937968 -0.680811,0.87983 -0.03271,4.865567 -0.249624,7.291027 l -1.074815,0.0078 c 0.147797,-2.371721 -0.320497,-5.897676 0.16057,-7.261628 0.524446,-1.390198 2.695366,-3.200011 19.356798,-6.326674 z"/><rect id="rect3612-5" width="1.89" height="3.121" x="6.164" y="35.675" fill="url(#linearGradient4331)" fill-opacity="1" fill-rule="nonzero" stroke="none" transform="matrix(0.99011315,-0.14027102,0.16669006,0.98600934,0,0)"/><path id="rect3723-0" fill="#424345" fill-opacity="1" stroke="none" d="m 34.091717,20.484851 c 3.394816,-1.456041 6.920328,-2.6919 11.087262,-2.609977 0.186284,-0.05735 0.501557,0.38268 -0.179189,0.405995 -3.672127,0.189495 -7.110849,1.487034 -10.616892,2.46498 -0.442686,0.193466 -0.560253,-0.155309 -0.291181,-0.260998 z"/><path id="rect3723-1-9" fill="#424345" fill-opacity="1" stroke="none" d="m 34.152572,21.484533 c 4.01885,1.124539 8.066412,2.557651 12.146666,5.732926 0.210242,0.08335 0.321054,0.740222 -0.362272,0.256727 -3.715116,-2.546919 -7.705051,-3.8563 -11.615718,-5.522625 -0.525704,-0.143185 -0.482777,-0.565487 -0.168676,-0.467028 z"/><path id="rect3723-1-2-0" fill="#424345" fill-opacity="1" stroke="none" d="M 31.814495,20.660644 C 27.847892,19.242696 23.715074,17.986808 18.754951,17.7123 c -0.218763,-0.06013 -0.615251,0.259357 0.193284,0.332988 4.358338,0.447149 8.384913,1.744358 12.507176,2.796381 0.517074,0.187727 0.673952,-0.07625 0.359084,-0.181025 z"/><path id="path3610-0" fill="url(#radialGradient3811-6)" fill-opacity="1" fill-rule="nonzero" stroke="none" d="m 254.55844,408.89502 a 11.616755,11.616755 0 1 1 -23.23351,0 11.616755,11.616755 0 1 1 23.23351,0 z" transform="matrix(0.12711252,0,0,0.1353149,-17.95125,-21.859647)"/><path id="path3605-6" fill="url(#linearGradient4324)" fill-opacity="1" stroke="none" d="m 34.317551,21.072108 c -0.826735,0.769398 -2.85053,0.743707 -3.697327,0 0,-0.542414 0.827674,-0.982124 1.848664,-0.982124 1.020989,0 1.848663,0.43971 1.848663,0.982124 z"/><path id="rect3723-8-1" fill="#000" fill-opacity="1" stroke="none" d="m 34.813627,20.958237 c 3.394815,-1.456041 6.920327,-2.691901 11.087261,-2.609977 0.186285,-0.05736 0.501558,0.38268 -0.179188,0.405995 -3.672128,0.189495 -7.110849,1.487034 -10.616891,2.46498 -0.442688,0.193466 -0.560254,-0.155307 -0.291182,-0.260998 z"/><path id="rect3723-8-8-3" fill="#000" fill-opacity="1" stroke="none" d="m 33.579425,21.87072 c 4.062475,1.150655 8.153014,2.611674 12.271085,5.824309 0.212448,0.08485 0.322469,0.745781 -0.367344,0.256284 -3.750646,-2.5791 -7.783274,-3.915442 -11.734571,-5.610231 -0.531423,-0.146581 -0.486647,-0.570919 -0.16917,-0.470362 z"/><path id="rect3723-8-8-1-8" fill="#000" fill-opacity="1" stroke="none" d="m 18.038504,17.574673 c 4.107325,0.447747 8.268551,1.136859 12.604823,3.202935 0.216878,0.04288 0.381276,0.551168 -0.340981,0.243411 -3.920095,-1.608422 -8.01363,-2.205843 -12.057142,-3.094864 -0.536957,-0.05546 -0.52858,-0.394854 -0.2067,-0.351482 z"/></g></svg>